# xmcd CD database file
# Copyright (C) 1993-2000  Ti Kan
#
# Track frame offsets:
#	150
#	13717
#	24980
#	37920
#	53140
#	77097
#	94442
#	109847
#	126252
#	137560
#	152137
#	162925
#
# Disc length: 2358 seconds
#
# Revision: 1
# Processed by: cddbd v1.4PL0 Copyright (c) Steve Scherf et al.
# Submitted via: xmcd 2.6 PL0
#
DISCID=9309340c
DTITLE=Steel Rail - A Thousand Miles of Snow
DYEAR=1900
DGENRE=
TTITLE0=A Thousand Miles of Snow
TTITLE1=Hard Oak Bench
TTITLE2=Milkweed Pods
TTITLE3=Solitaire
TTITLE4=There Was a Time
TTITLE5=Lay Me Down With the Blues
TTITLE6=Blue Bird Café
TTITLE7=Too Drunk to Cry
TTITLE8=Angel Eyes
TTITLE9=Right of the Moon
TTITLE10=Lost Your Love
TTITLE11=Katherine
EXTD=
EXTT0=
EXTT1=
EXTT2=
EXTT3=
EXTT4=
EXTT5=
EXTT6=
EXTT7=
EXTT8=
EXTT9=
EXTT10=
EXTT11=
PLAYORDER=
